<svg width="33" height="33" viewBox="0 0 33 33" fill="none" xmlns="http://www.w3.org/2000/svg">
<path fill-rule="evenodd" clip-rule="evenodd" d="M3.96692 7.75942C4.35384 5.51316 6.13927 3.86196 8.39267 3.51909C10.5518 3.19057 13.5138 2.86666 16.7996 2.86666C20.0855 2.86666 23.0475 3.19057 25.2066 3.51909C27.46 3.86196 29.2454 5.51316 29.6324 7.75942C29.902 9.32495 30.133 11.3137 30.133 13.5333C30.133 15.753 29.902 17.7417 29.6324 19.3072C29.2454 21.5535 27.46 23.2047 25.2066 23.5476C23.2314 23.8481 20.5842 24.1448 17.6317 24.1931L9.47794 29.0113C8.58912 29.5365 7.46631 28.8958 7.46631 27.8634V23.3253C5.66172 22.7252 4.29905 21.2355 3.96692 19.3072C3.69726 17.7417 3.46631 15.753 3.46631 13.5333C3.46631 11.3137 3.69726 9.32495 3.96692 7.75942ZM8.79964 10.8667C8.79964 10.1303 9.3966 9.53333 10.133 9.53333H23.4663C24.2027 9.53333 24.7996 10.1303 24.7996 10.8667C24.7996 11.603 24.2027 12.2 23.4663 12.2H10.133C9.3966 12.2 8.79964 11.603 8.79964 10.8667ZM8.79964 16.2C8.79964 15.4636 9.3966 14.8667 10.133 14.8667H15.4663C16.2027 14.8667 16.7996 15.4636 16.7996 16.2C16.7996 16.9364 16.2027 17.5333 15.4663 17.5333H10.133C9.3966 17.5333 8.79964 16.9364 8.79964 16.2Z" fill="white"/>
</svg>
