<svg width="35" height="32" viewBox="0 0 35 32" fill="none" xmlns="http://www.w3.org/2000/svg">
<path d="M13.7899 0.399351C12.8701 0.00631625 11.8528 -0.0996466 10.8715 0.0953689C9.89033 0.290384 8.99105 0.777266 8.29172 1.49211C7.57733 2.19155 7.09077 3.09009 6.89566 4.07026C6.70054 5.05044 6.80595 6.06663 7.1981 6.98598C7.57172 7.91232 8.21643 8.70441 9.0479 9.25867C9.87937 9.81294 10.8589 10.1036 11.8584 10.0925H16.9032V5.05594C16.9142 4.05671 16.6228 3.07747 16.0673 2.24654C15.5118 1.41561 14.718 0.771753 13.7899 0.399351Z" fill="#FFCD2E"/>
<path d="M32.1685 6.65736C30.9883 5.47914 29.4852 4.67675 27.8489 4.3515C26.2127 4.02626 24.5167 4.19275 22.975 4.82995C21.4334 5.46716 20.1153 6.5465 19.1872 7.93169C18.259 9.31689 17.7624 10.9458 17.7601 12.6128V21.0415H26.2126C27.8858 21.0591 29.5253 20.5716 30.9166 19.6426C32.3078 18.7137 33.3859 17.3867 34.0098 15.8353C34.662 14.2978 34.8351 12.5997 34.5066 10.9624C34.1782 9.32512 33.3633 7.82483 32.1685 6.65736Z" fill="#FF7162"/>
<path d="M27.4677 25.018C27.0942 24.0906 26.4494 23.2974 25.6176 22.742C24.7858 22.1866 23.8056 21.8949 22.8053 21.905H17.7604V26.9459C17.7499 27.9453 18.0417 28.9246 18.5976 29.7555C19.1535 30.5864 19.9476 31.2301 20.8758 31.6024C21.4969 31.8635 22.1637 31.9985 22.8375 31.9996C23.6645 31.9912 24.4768 31.7805 25.2034 31.3859C25.9301 30.9912 26.5489 30.4247 27.0057 29.7358C27.4626 29.047 27.7435 28.2568 27.8241 27.4343C27.9046 26.6119 27.7822 25.7822 27.4677 25.018Z" fill="#0DCF82"/>
<path d="M0.666385 16.1614C0.0097459 17.6994 -0.166816 19.3997 0.159817 21.0396C0.48645 22.6795 1.30105 24.1827 2.49697 25.3522C3.26855 26.1377 4.18851 26.7623 5.20352 27.1898C6.21852 27.6173 7.30836 27.8392 8.40985 27.8426C9.53727 27.8401 10.653 27.6146 11.6929 27.1792C13.2457 26.5561 14.5739 25.4789 15.5036 24.0887C16.4333 22.6985 16.9211 21.0601 16.9032 19.3882V10.9509H8.46356C6.78989 10.9336 5.15 11.4218 3.7587 12.3516C2.36741 13.2813 1.28957 14.6092 0.666385 16.1614Z" fill="#625DF5"/>
</svg>
