<svg width="17" height="16" viewBox="0 0 17 16" fill="none" xmlns="http://www.w3.org/2000/svg">
<rect width="16" height="16" transform="translate(0.731567)" fill="#F4F5F6"/>
<path fill-rule="evenodd" clip-rule="evenodd" d="M2.73157 3.33334C2.73157 1.86058 3.92547 0.666672 5.39823 0.666672H10.9603C11.6676 0.666672 12.3459 0.947623 12.8459 1.44772L13.9505 2.55229C14.4506 3.05239 14.7316 3.73066 14.7316 4.43791V12.6667C14.7316 14.1394 13.5377 15.3333 12.0649 15.3333H5.39823C3.92547 15.3333 2.73157 14.1394 2.73157 12.6667V3.33334ZM13.3982 5.33334V12.6667C13.3982 13.4031 12.8013 14 12.0649 14H5.39823C4.66185 14 4.0649 13.4031 4.0649 12.6667V3.33334C4.0649 2.59696 4.66185 2.00001 5.39823 2.00001H10.0649V3.33334C10.0649 4.43791 10.9603 5.33334 12.0649 5.33334H13.3982ZM13.3243 4C13.2588 3.81174 13.1513 3.63872 13.0077 3.4951L11.9031 2.39053C11.7595 2.24691 11.5865 2.13943 11.3982 2.07397V3.33334C11.3982 3.70153 11.6967 4 12.0649 4H13.3243Z" fill="#8F95B2"/>
</svg>
