<svg width="25" height="24" viewBox="0 0 25 24" fill="none" xmlns="http://www.w3.org/2000/svg">
<path fill-rule="evenodd" clip-rule="evenodd" d="M3.66895 5C3.66895 2.79086 5.45981 1 7.66895 1H16.0121C17.073 1 18.0904 1.42143 18.8405 2.17157L20.4974 3.82843C21.2475 4.57857 21.6689 5.59599 21.6689 6.65685V19C21.6689 21.2091 19.8781 23 17.6689 23H7.66895C5.45981 23 3.66895 21.2091 3.66895 19V5ZM19.6689 8V19C19.6689 20.1046 18.7735 21 17.6689 21H7.66895C6.56438 21 5.66895 20.1046 5.66895 19V5C5.66895 3.89543 6.56438 3 7.66895 3H14.6689V5C14.6689 6.65685 16.0121 8 17.6689 8H19.6689ZM19.558 6C19.4598 5.7176 19.2986 5.45808 19.0832 5.24264L17.4263 3.58579C17.2109 3.37035 16.9513 3.20914 16.6689 3.11094V5C16.6689 5.55228 17.1167 6 17.6689 6H19.558Z" fill="#8F95B2"/>
<path d="M9.66895 12C9.11666 12 8.66895 12.4477 8.66895 13C8.66895 13.5523 9.11666 14 9.66895 14H15.6689C16.2212 14 16.6689 13.5523 16.6689 13C16.6689 12.4477 16.2212 12 15.6689 12H9.66895Z" fill="#8F95B2"/>
<path d="M9.66895 16C9.11666 16 8.66895 16.4477 8.66895 17C8.66895 17.5523 9.11666 18 9.66895 18H12.6689C13.2212 18 13.6689 17.5523 13.6689 17C13.6689 16.4477 13.2212 16 12.6689 16H9.66895Z" fill="#8F95B2"/>
</svg>
