<svg width="20" height="20" viewBox="0 0 20 20" fill="none" xmlns="http://www.w3.org/2000/svg">
<rect width="20" height="20" rx="3" fill="white"/>
<path fill-rule="evenodd" clip-rule="evenodd" d="M15 5.625H5C4.65482 5.625 4.375 5.90482 4.375 6.25V13.75C4.375 14.0952 4.65482 14.375 5 14.375H15C15.3452 14.375 15.625 14.0952 15.625 13.75V6.25C15.625 5.90482 15.3452 5.625 15 5.625ZM5 4.375C3.96447 4.375 3.125 5.21447 3.125 6.25V13.75C3.125 14.7855 3.96447 15.625 5 15.625H15C16.0355 15.625 16.875 14.7855 16.875 13.75V6.25C16.875 5.21447 16.0355 4.375 15 4.375H5Z" fill="#625DF5"/>
<path fill-rule="evenodd" clip-rule="evenodd" d="M5.76988 7.09987C5.99085 6.8347 6.38496 6.79887 6.65013 7.01985L9.5999 9.47799C9.83168 9.67114 10.1684 9.67114 10.4001 9.47799L13.3499 7.01985C13.6151 6.79887 14.0092 6.8347 14.2302 7.09987C14.4511 7.36504 14.4153 7.75915 14.1501 7.98012L11.2004 10.4383C10.505 11.0177 9.49501 11.0177 8.79967 10.4383L5.8499 7.98012C5.58473 7.75915 5.5489 7.36504 5.76988 7.09987Z" fill="#625DF5"/>
</svg>
