<svg width="16" height="16" viewBox="0 0 16 16" fill="none" xmlns="http://www.w3.org/2000/svg">
<path d="M9.39093 15.3918L6.61334 12.6112L12.5801 6.58316L15.4092 9.41157L9.39093 15.3918Z" fill="#8AB4F8"/>
<path d="M9.41166 3.41526L6.58335 0.586121L0.586443 6.58325C-0.194868 7.36385 -0.195603 8.62885 0.584973 9.41018C0.585708 9.41092 0.586443 9.41165 0.586443 9.41165L6.58335 15.4088L9.358 12.6215L4.82596 8.00113L9.41166 3.41526Z" fill="#4285F4"/>
<path d="M15.4089 6.58313L9.41203 0.586005C8.63072 -0.195335 7.3643 -0.195335 6.58299 0.586005C5.80168 1.36734 5.80168 2.6338 6.58299 3.41441L12.5836 9.41154C13.3649 10.1929 14.6313 10.1929 15.4119 9.41154C16.1932 8.6302 16.1932 7.36374 15.4119 6.58313H15.4089Z" fill="#8AB4F8"/>
<path d="M7.97609 15.9998C9.07089 15.9998 9.9584 15.1122 9.9584 14.0174C9.9584 12.9225 9.07089 12.035 7.97609 12.035C6.88129 12.035 5.99377 12.9225 5.99377 14.0174C5.99377 15.1122 6.88129 15.9998 7.97609 15.9998Z" fill="#246FDB"/>
</svg>
