<svg width="56" height="32" viewBox="0 0 56 32" fill="none" xmlns="http://www.w3.org/2000/svg">
<path d="M11.8687 16.9896V14.818C11.8687 10.5002 15.3689 7 19.6866 7V7C24.0044 7 27.5046 10.5002 27.5046 14.818V17.5716" stroke="#8F95B2" stroke-width="1.7"/>
<path d="M11 20.8987V19.6326C11 17.7136 12.5557 16.1579 14.4747 16.1579C15.4342 16.1579 16.212 16.9358 16.212 17.8953V22.636C16.212 23.5955 15.4342 24.3733 14.4747 24.3733C12.5557 24.3733 11 22.8177 11 20.8987Z" stroke="#8F95B2" stroke-width="1.7"/>
<path d="M28.373 20.8987V19.6326C28.373 17.7136 26.8174 16.1579 24.8984 16.1579C23.9389 16.1579 23.1611 16.9358 23.1611 17.8953V22.636C23.1611 23.5955 23.9389 24.3733 24.8984 24.3733C26.8174 24.3733 28.373 22.8177 28.373 20.8987Z" stroke="#8F95B2" stroke-width="1.7"/>
<path fill-rule="evenodd" clip-rule="evenodd" d="M42.8047 14.5286C42.5444 14.2682 42.1223 14.2682 41.8619 14.5286L40 16.3905L38.1381 14.5286C37.8777 14.2682 37.4556 14.2682 37.1953 14.5286C36.9349 14.7889 36.9349 15.2111 37.1953 15.4714L39.5286 17.8047C39.7889 18.0651 40.2111 18.0651 40.4714 17.8047L42.8047 15.4714C43.0651 15.2111 43.0651 14.7889 42.8047 14.5286Z" fill="#8F95B2"/>
</svg>
