<svg width="24" height="24" viewBox="0 0 24 24" fill="none" xmlns="http://www.w3.org/2000/svg">
<path d="M24 0H0V23.8065H24V0Z" fill="white"/>
<path fill-rule="evenodd" clip-rule="evenodd" d="M15.174 15.0752C14.103 15.0752 13.2347 14.216 13.2347 13.1562C13.2347 12.0963 14.103 11.237 15.174 11.237C16.2451 11.237 17.1134 12.0963 17.1134 13.1562C17.1134 14.216 16.2451 15.0752 15.174 15.0752ZM15.7546 9.46148V7.75424C16.2049 7.54376 16.5203 7.09296 16.5203 6.5698V6.53039C16.5203 5.80835 15.9234 5.2176 15.1938 5.2176H15.1541C14.4245 5.2176 13.8276 5.80835 13.8276 6.53039V6.5698C13.8276 7.09296 14.143 7.54394 14.5933 7.75442V9.46148C13.9228 9.56405 13.3103 9.83769 12.8051 10.2404L8.06836 6.59411C8.09962 6.47533 8.12158 6.35306 8.12177 6.22452C8.12251 5.4069 7.45374 4.74305 6.62717 4.74194C5.80097 4.74102 5.12996 5.40304 5.12903 6.22084C5.1281 7.03864 5.79687 7.70249 6.62344 7.70341C6.8927 7.70378 7.14205 7.6281 7.36051 7.50509L12.0198 11.0921C11.6236 11.684 11.3914 12.3929 11.3914 13.1562C11.3914 13.9552 11.6465 14.6944 12.0775 15.3023L10.6607 16.7046C10.5486 16.6712 10.4325 16.648 10.3093 16.648C9.63033 16.648 9.07971 17.1927 9.07971 17.8647C9.07971 18.5368 9.63033 19.0816 10.3093 19.0816C10.9885 19.0816 11.539 18.5368 11.539 17.8647C11.539 17.7432 11.5155 17.6281 11.4818 17.5172L12.8834 16.1302C13.5196 16.6107 14.3119 16.8994 15.174 16.8994C17.2632 16.8994 18.9565 15.2235 18.9565 13.1562C18.9565 11.2847 17.5672 9.73862 15.7546 9.46148Z" fill="#FF7A59"/>
</svg>
