<svg width="32" height="27" viewBox="0 0 32 27" fill="none" xmlns="http://www.w3.org/2000/svg">
<path fill-rule="evenodd" clip-rule="evenodd" d="M4.36364 0.109085C1.95367 0.109085 0 2.06275 0 4.47272V21.9273C0 24.3372 1.95367 26.2909 4.36364 26.2909H27.6364C30.0463 26.2909 32 24.3372 32 21.9273V4.47272C32 2.06275 30.0463 0.109085 27.6364 0.109085H4.36364ZM8.20394 6.26444C7.58681 5.75016 6.66963 5.83354 6.15535 6.45067C5.64108 7.0678 5.72446 7.98499 6.34159 8.49926L13.2065 14.22C14.8247 15.5686 17.1753 15.5686 18.7936 14.22L25.6585 8.49926C26.2756 7.98499 26.359 7.0678 25.8447 6.45067C25.3304 5.83354 24.4133 5.75016 23.7961 6.26444L16.9312 11.9852C16.3918 12.4347 15.6083 12.4347 15.0689 11.9852L8.20394 6.26444Z" fill="white"/>
</svg>
