<svg width="133" height="32" viewBox="0 0 133 32" fill="none" xmlns="http://www.w3.org/2000/svg">
<path d="M13.7899 0.399351C12.8701 0.00631625 11.8528 -0.0996466 10.8715 0.0953689C9.89033 0.290384 8.99105 0.777266 8.29172 1.49211C7.57733 2.19155 7.09077 3.09009 6.89566 4.07026C6.70054 5.05044 6.80595 6.06663 7.1981 6.98598C7.57172 7.91232 8.21643 8.70441 9.0479 9.25867C9.87937 9.81294 10.8589 10.1036 11.8584 10.0925H16.9032V5.05594C16.9142 4.05671 16.6228 3.07747 16.0673 2.24654C15.5118 1.41561 14.718 0.771753 13.7899 0.399351Z" fill="#FFCD2E"/>
<path d="M32.1685 6.65736C30.9883 5.47914 29.4852 4.67675 27.8489 4.3515C26.2127 4.02626 24.5167 4.19275 22.975 4.82995C21.4334 5.46716 20.1153 6.5465 19.1872 7.93169C18.259 9.31689 17.7624 10.9458 17.7601 12.6128V21.0415H26.2126C27.8858 21.0591 29.5253 20.5716 30.9166 19.6426C32.3078 18.7137 33.3859 17.3867 34.0098 15.8353C34.662 14.2978 34.8351 12.5997 34.5066 10.9624C34.1782 9.32512 33.3633 7.82483 32.1685 6.65736Z" fill="#FF7162"/>
<path d="M27.4677 25.018C27.0942 24.0906 26.4494 23.2974 25.6176 22.742C24.7858 22.1866 23.8056 21.8949 22.8053 21.905H17.7604V26.9459C17.7499 27.9453 18.0417 28.9246 18.5976 29.7555C19.1535 30.5864 19.9476 31.2301 20.8758 31.6024C21.4969 31.8635 22.1637 31.9985 22.8375 31.9996C23.6645 31.9912 24.4768 31.7805 25.2034 31.3859C25.9301 30.9912 26.5489 30.4247 27.0057 29.7358C27.4626 29.047 27.7435 28.2568 27.8241 27.4343C27.9046 26.6119 27.7822 25.7822 27.4677 25.018Z" fill="#0DCF82"/>
<path d="M0.666385 16.1614C0.0097459 17.6994 -0.166816 19.3997 0.159817 21.0396C0.48645 22.6795 1.30105 24.1827 2.49697 25.3522C3.26855 26.1377 4.18851 26.7623 5.20352 27.1898C6.21852 27.6173 7.30836 27.8392 8.40985 27.8426C9.53727 27.8401 10.653 27.6146 11.6929 27.1792C13.2457 26.5561 14.5739 25.4789 15.5036 24.0887C16.4333 22.6985 16.9211 21.0601 16.9032 19.3882V10.9509H8.46356C6.78989 10.9336 5.15 11.4218 3.7587 12.3516C2.36741 13.2813 1.28957 14.6092 0.666385 16.1614Z" fill="#625DF5"/>
<path d="M46.7213 22.752C45.9712 22.752 45.2502 22.6356 44.5583 22.4028C43.8729 22.1636 43.2715 21.8241 42.7542 21.3844C42.2369 20.9382 41.8651 20.4047 41.6388 19.784L43.86 18.9692C43.9505 19.2278 44.1348 19.4639 44.4128 19.6773C44.6909 19.8906 45.0304 20.062 45.4313 20.1913C45.8322 20.3207 46.2622 20.3853 46.7213 20.3853C47.1934 20.3853 47.6331 20.3142 48.0405 20.1719C48.4543 20.0232 48.7873 19.8195 49.0395 19.5609C49.2917 19.2957 49.4178 18.9886 49.4178 18.6394C49.4178 18.2838 49.2852 17.9928 49.0201 17.7665C48.755 17.5337 48.4155 17.3494 48.0017 17.2136C47.5878 17.0778 47.161 16.9743 46.7213 16.9032C45.7578 16.7545 44.8946 16.5249 44.1316 16.2145C43.3685 15.9041 42.7639 15.4741 42.3177 14.9245C41.878 14.3749 41.6582 13.6636 41.6582 12.7906C41.6582 11.9694 41.8942 11.2516 42.3662 10.6373C42.8383 10.023 43.4591 9.5445 44.2285 9.20178C44.998 8.85906 45.829 8.68771 46.7213 8.68771C47.465 8.68771 48.1827 8.8041 48.8746 9.03689C49.5665 9.26968 50.1711 9.60916 50.6884 10.0553C51.2122 10.5015 51.5872 11.0382 51.8136 11.6655L49.5827 12.4705C49.4921 12.2119 49.3079 11.9758 49.0298 11.7625C48.7518 11.5491 48.4123 11.3809 48.0114 11.2581C47.6104 11.1288 47.1804 11.0641 46.7213 11.0641C46.2622 11.0576 45.8257 11.132 45.4119 11.2872C45.0045 11.4359 44.6715 11.6396 44.4128 11.8982C44.1542 12.1569 44.0249 12.4544 44.0249 12.7906C44.0249 13.2238 44.1445 13.5504 44.3837 13.7703C44.6295 13.9901 44.956 14.1518 45.3634 14.2552C45.7708 14.3522 46.2234 14.4428 46.7213 14.5268C47.6266 14.6691 48.464 14.9083 49.2335 15.2446C50.003 15.5808 50.6205 16.0302 51.0861 16.5928C51.5517 17.1489 51.7845 17.8311 51.7845 18.6394C51.7845 19.4606 51.5517 20.1816 51.0861 20.8024C50.6205 21.4167 50.003 21.8952 49.2335 22.2379C48.464 22.5806 47.6266 22.752 46.7213 22.752ZM53.3858 18.911V12.8003H55.7525V18.2902C55.7525 18.6717 55.8462 19.0209 56.0337 19.3378C56.2213 19.6482 56.4702 19.8971 56.7806 20.0846C57.0975 20.2657 57.4434 20.3562 57.8184 20.3562C58.2064 20.3562 58.5556 20.2657 58.866 20.0846C59.1764 19.8971 59.4253 19.6482 59.6129 19.3378C59.8004 19.0209 59.8941 18.6717 59.8941 18.2902V12.8003H62.2608L62.2705 22.4998H59.9038L59.8941 21.6172C59.5579 21.9663 59.1602 22.2444 58.7011 22.4513C58.242 22.6518 57.7506 22.752 57.2268 22.752C56.5219 22.752 55.8785 22.5806 55.2966 22.2379C54.7146 21.8887 54.249 21.4264 53.8998 20.8509C53.5571 20.2689 53.3858 19.6223 53.3858 18.911ZM66.2059 27.3496H63.8392V12.8003H66.2059V14.0321C66.5228 13.5924 66.9108 13.2368 67.3699 12.9652C67.8354 12.6871 68.3786 12.5481 68.9994 12.5481C69.7107 12.5481 70.3735 12.6807 70.9878 12.9458C71.6021 13.2109 72.142 13.5795 72.6076 14.0515C73.0796 14.5171 73.445 15.0571 73.7037 15.6714C73.9688 16.2857 74.1013 16.9452 74.1013 17.6501C74.1013 18.3549 73.9688 19.0177 73.7037 19.6385C73.445 20.2592 73.0796 20.8056 72.6076 21.2777C72.142 21.7433 71.6021 22.1086 70.9878 22.3737C70.3735 22.6388 69.7107 22.7714 68.9994 22.7714C68.3786 22.7714 67.8354 22.6356 67.3699 22.364C66.9108 22.086 66.5228 21.7271 66.2059 21.2874V27.3496ZM68.9703 14.8275C68.4788 14.8275 68.0391 14.9568 67.6512 15.2155C67.2632 15.4677 66.9593 15.8072 66.7394 16.2339C66.5195 16.6607 66.4096 17.1328 66.4096 17.6501C66.4096 18.1674 66.5195 18.6426 66.7394 19.0759C66.9593 19.5027 67.2632 19.8454 67.6512 20.104C68.0391 20.3562 68.4788 20.4823 68.9703 20.4823C69.4682 20.4823 69.9241 20.3562 70.3379 20.104C70.7518 19.8518 71.0815 19.5124 71.3273 19.0856C71.573 18.6523 71.6959 18.1738 71.6959 17.6501C71.6959 17.1328 71.573 16.6607 71.3273 16.2339C71.0815 15.8072 70.7518 15.4677 70.3379 15.2155C69.9305 14.9568 69.4747 14.8275 68.9703 14.8275ZM79.9912 22.752C79.0988 22.752 78.2841 22.5224 77.5469 22.0633C76.8162 21.6042 76.231 20.9867 75.7913 20.2107C75.358 19.4348 75.1414 18.578 75.1414 17.6404C75.1414 16.9355 75.2675 16.276 75.5197 15.6617C75.7719 15.0409 76.1178 14.4977 76.5576 14.0321C77.0037 13.5601 77.521 13.1915 78.1095 12.9264C78.6979 12.6613 79.3251 12.5287 79.9912 12.5287C80.7477 12.5287 81.4396 12.6904 82.0669 13.0137C82.7006 13.3305 83.2373 13.767 83.677 14.3231C84.1167 14.8792 84.4368 15.5129 84.6372 16.2242C84.8377 16.9355 84.883 17.6792 84.773 18.4551H77.6827C77.7732 18.8172 77.922 19.1438 78.1289 19.4348C78.3358 19.7193 78.5977 19.9488 78.9145 20.1234C79.2314 20.2916 79.5903 20.3789 79.9912 20.3853C80.405 20.3918 80.7801 20.2948 81.1163 20.0943C81.459 19.8874 81.7436 19.6094 81.9699 19.2602L84.3851 19.8228C83.9906 20.6828 83.4022 21.3876 82.6197 21.9372C81.8373 22.4804 80.9611 22.752 79.9912 22.752ZM77.6051 16.6801H82.3773C82.3061 16.2921 82.1542 15.9429 81.9214 15.6326C81.6951 15.3157 81.4138 15.0635 81.0775 14.876C80.7413 14.6885 80.3792 14.5947 79.9912 14.5947C79.6032 14.5947 79.2443 14.6885 78.9145 14.876C78.5848 15.0571 78.3035 15.306 78.0707 15.6229C77.8444 15.9332 77.6892 16.2857 77.6051 16.6801ZM86.4238 22.4998L86.4141 12.8003H88.7807L88.7904 13.6636C89.1202 13.3144 89.5147 13.0396 89.9738 12.8391C90.4329 12.6322 90.9276 12.5287 91.4578 12.5287C91.8134 12.5287 92.1691 12.5804 92.5247 12.6839L91.5936 15.07C91.3479 14.973 91.1022 14.9245 90.8564 14.9245C90.4749 14.9245 90.1257 15.0183 89.8089 15.2058C89.4985 15.3868 89.2495 15.6358 89.062 15.9526C88.881 16.263 88.7904 16.609 88.7904 16.9905V22.4998H86.4238ZM97.0648 10.7634V12.8003H99.7128V15.167H97.0648V22.4998H94.6982V15.167H93.6409V12.8003H94.6982V10.7634C94.6982 10.2073 94.834 9.69969 95.1055 9.24058C95.3836 8.775 95.7554 8.40642 96.221 8.13483C96.6866 7.85678 97.2006 7.71776 97.7632 7.71776C98.1706 7.71776 98.5747 7.80182 98.9757 7.96994C99.3766 8.13807 99.7322 8.39672 100.043 8.7459L98.3355 10.4142C98.2773 10.3043 98.1932 10.2235 98.0833 10.1717C97.9798 10.1135 97.8731 10.0844 97.7632 10.0844C97.5757 10.0844 97.4108 10.1523 97.2685 10.2881C97.1327 10.4175 97.0648 10.5759 97.0648 10.7634ZM101.544 22.4998V7.95054H103.91V22.4998H101.544ZM110.421 22.752C109.529 22.752 108.714 22.5224 107.977 22.0633C107.246 21.6042 106.661 20.9899 106.221 20.2204C105.788 19.4445 105.571 18.5877 105.571 17.6501C105.571 16.9388 105.697 16.276 105.95 15.6617C106.202 15.0409 106.548 14.4977 106.987 14.0321C107.434 13.5601 107.951 13.1915 108.539 12.9264C109.128 12.6613 109.755 12.5287 110.421 12.5287C111.313 12.5287 112.125 12.7583 112.856 13.2174C113.593 13.6765 114.178 14.294 114.611 15.07C115.051 15.8459 115.271 16.706 115.271 17.6501C115.271 18.3549 115.145 19.0145 114.893 19.6288C114.64 20.2431 114.291 20.7862 113.845 21.2583C113.405 21.7239 112.891 22.0892 112.303 22.3543C111.721 22.6194 111.094 22.752 110.421 22.752ZM110.421 20.3853C110.893 20.3853 111.317 20.2592 111.692 20.007C112.067 19.7549 112.361 19.4218 112.574 19.008C112.794 18.5941 112.904 18.1415 112.904 17.6501C112.904 17.1457 112.791 16.6866 112.565 16.2727C112.345 15.8524 112.044 15.5194 111.663 15.2737C111.288 15.0215 110.874 14.8954 110.421 14.8954C109.955 14.8954 109.535 15.0215 109.16 15.2737C108.785 15.5259 108.488 15.8621 108.268 16.2824C108.048 16.7027 107.938 17.1586 107.938 17.6501C107.938 18.1609 108.051 18.6232 108.277 19.0371C108.504 19.4509 108.804 19.7807 109.179 20.0264C109.561 20.2657 109.975 20.3853 110.421 20.3853ZM121.394 22.4998H119.047L115.807 12.8003H118.125L120.23 19.0759L122.325 12.8003H124.663L126.758 19.0759L128.863 12.8003H131.181L127.941 22.4998H125.594L123.489 16.1951L121.394 22.4998Z" fill="#353945"/>
</svg>
