<svg width="24" height="24" viewBox="0 0 24 24" fill="none" xmlns="http://www.w3.org/2000/svg">
<path fill-rule="evenodd" clip-rule="evenodd" d="M13.3206 4.52916C16.2666 4.98447 18.5365 7.01108 19.3127 9.87918C19.5624 10.8021 19.5624 12.4486 19.3127 13.3715C18.6102 15.9673 16.7285 17.8489 14.1327 18.5515C13.616 18.6913 13.2587 18.7271 12.3866 18.7264C11.2025 18.7254 10.6368 18.619 9.63722 18.2094L9.10233 17.9902L7.45273 18.4006C5.90895 18.7848 5.78899 18.8032 5.58327 18.6877C5.17548 18.4589 5.17832 18.2864 5.6186 16.5265L6.02266 14.9117L5.80296 14.3758C5.3929 13.3752 5.2865 12.8097 5.28553 11.6253C5.2848 10.7532 5.32061 10.396 5.46047 9.87918C6.15845 7.30021 8.05276 5.39542 10.5981 4.71304C11.1973 4.55239 12.7794 4.44559 13.3206 4.52916ZM10.6675 6.04248C9.70893 6.35184 9.01429 6.78042 8.27797 7.51673C7.1843 8.6104 6.64023 9.82435 6.5638 11.3411C6.5171 12.2679 6.64413 13.0158 6.98686 13.8327C7.10536 14.1151 7.24392 14.4468 7.29468 14.5699C7.37191 14.7571 7.33853 14.9898 7.09074 15.9903C6.92766 16.6485 6.8012 17.1938 6.80965 17.2023C6.81809 17.2107 7.36347 17.0843 8.02165 16.9212C9.02208 16.6734 9.25485 16.64 9.44198 16.7172C9.5651 16.768 9.89687 16.9066 10.1793 17.0251C10.9961 17.3678 11.744 17.4948 12.6708 17.4481C14.1876 17.3717 15.4015 16.8276 16.4952 15.734C17.226 15.0032 17.652 14.3158 17.9763 13.3445C18.1584 12.7992 18.1843 12.5854 18.1843 11.6253C18.1843 10.6653 18.1584 10.4515 17.9763 9.90622C17.652 8.93486 17.226 8.24752 16.4952 7.51673C15.2561 6.27769 13.9245 5.75083 12.1835 5.81077C11.5196 5.83367 11.1302 5.89312 10.6675 6.04248Z" fill="#625DF5"/>
</svg>
