<svg width="20" height="20" viewBox="0 0 20 20" fill="none" xmlns="http://www.w3.org/2000/svg">
<path fill-rule="evenodd" clip-rule="evenodd" d="M1.97954 4.72463C2.22136 3.32072 3.33726 2.28872 4.74563 2.07443C6.09508 1.8691 7.94631 1.66666 9.99999 1.66666C12.0537 1.66666 13.9049 1.8691 15.2543 2.07443C16.6627 2.28872 17.7786 3.32072 18.0204 4.72463C18.189 5.70309 18.3333 6.94603 18.3333 8.33332C18.3333 9.72061 18.189 10.9636 18.0204 11.942C17.7786 13.3459 16.6627 14.3779 15.2543 14.5922C14.0198 14.7801 12.3653 14.9655 10.5201 14.9957L5.42393 18.0071C4.86842 18.3353 4.16666 17.9349 4.16666 17.2896V14.4533C3.03879 14.0782 2.18712 13.1472 1.97954 11.942C1.811 10.9636 1.66666 9.72061 1.66666 8.33332C1.66666 6.94603 1.811 5.70309 1.97954 4.72463ZM4.99999 6.66666C4.99999 6.20642 5.37309 5.83332 5.83332 5.83332H14.1667C14.6269 5.83332 15 6.20642 15 6.66666C15 7.12689 14.6269 7.49999 14.1667 7.49999H5.83332C5.37309 7.49999 4.99999 7.12689 4.99999 6.66666ZM4.99999 9.99999C4.99999 9.53975 5.37309 9.16666 5.83332 9.16666H9.16666C9.62689 9.16666 9.99999 9.53975 9.99999 9.99999C9.99999 10.4602 9.62689 10.8333 9.16666 10.8333H5.83332C5.37309 10.8333 4.99999 10.4602 4.99999 9.99999Z" fill="#625DF5"/>
</svg>
