<svg width="17" height="16" viewBox="0 0 17 16" fill="none" xmlns="http://www.w3.org/2000/svg">
<path d="M3.1235 13.6005L2 1H14.345L13.22 13.5985L8.16499 15L3.1235 13.6005Z" fill="#E44F26"/>
<path d="M8.17188 13.9297L12.345 12.7972L13.3267 2.03125H8.17188V13.9297Z" fill="#F1662A"/>
<path d="M8.16949 6.70222H6.08039L5.93635 5.11972H8.16949V3.57422H4.21094L4.24874 3.98922L4.63642 8.24772H8.16949V6.70222ZM8.16949 10.7157L8.16234 10.7177L6.40423 10.2532L6.29186 9.02072H4.70691L4.92807 11.4467L8.16234 12.3257L8.16949 12.3237V10.7157Z" fill="#EBEBEB"/>
<path d="M8.16406 6.70222V8.24772H10.1081L9.92523 10.2522L8.16406 10.7172V12.3252L11.4009 11.4467L11.4244 11.1857L11.7952 7.11722L11.834 6.70222H8.16406ZM8.16406 3.57422V5.11972H11.9775L12.0092 4.77272L12.0812 3.98922L12.119 3.57422H8.16406Z" fill="#353945"/>
</svg>
