<svg width="56" height="32" viewBox="0 0 56 32" fill="none" xmlns="http://www.w3.org/2000/svg">
<path fill-rule="evenodd" clip-rule="evenodd" d="M20 24C24.4183 24 28 20.4183 28 16C28 11.5817 24.4183 8 20 8C15.5817 8 12 11.5817 12 16C12 20.4183 15.5817 24 20 24ZM20 26C25.5228 26 30 21.5228 30 16C30 10.4772 25.5228 6 20 6C14.4772 6 10 10.4772 10 16C10 21.5228 14.4772 26 20 26Z" fill="#777E91"/>
<path d="M24 16C24 18.2091 22.2091 20 20 20C17.7909 20 16 18.2091 16 16C16 13.7909 17.7909 12 20 12C22.2091 12 24 13.7909 24 16Z" fill="#777E91"/>
<path fill-rule="evenodd" clip-rule="evenodd" d="M42.8047 14.5286C42.5444 14.2682 42.1223 14.2682 41.8619 14.5286L40 16.3905L38.1381 14.5286C37.8777 14.2682 37.4556 14.2682 37.1953 14.5286C36.9349 14.7889 36.9349 15.2111 37.1953 15.4714L39.5286 17.8047C39.7889 18.0651 40.2111 18.0651 40.4714 17.8047L42.8047 15.4714C43.0651 15.2111 43.0651 14.7889 42.8047 14.5286Z" fill="#8F95B2"/>
</svg>
