<svg width="32" height="32" viewBox="0 0 32 32" fill="none" xmlns="http://www.w3.org/2000/svg">
<path fill-rule="evenodd" clip-rule="evenodd" d="M12.9986 14.0399C13.028 14.5914 12.6047 15.0623 12.0532 15.0917C11.3005 15.1318 10.7044 15.1809 10.2385 15.23C9.61292 15.296 9.23278 15.6803 9.16959 16.2331C9.07886 17.0267 9 18.2278 9 20C9 21.7723 9.07886 22.9733 9.16959 23.7669C9.23289 24.3207 9.61207 24.7039 10.2368 24.7698C11.3308 24.8853 13.1392 25 16 25C18.8608 25 20.6692 24.8853 21.7632 24.7698C22.3879 24.7039 22.7671 24.3207 22.8304 23.7669C22.9211 22.9733 23 21.7723 23 20C23 18.2278 22.9211 17.0267 22.8304 16.2331C22.7672 15.6803 22.3871 15.296 21.7615 15.23C21.2956 15.1809 20.6995 15.1318 19.9468 15.0917C19.3953 15.0623 18.972 14.5914 19.0014 14.0399C19.0308 13.4884 19.5017 13.0651 20.0532 13.0945C20.8361 13.1363 21.4669 13.1879 21.9712 13.2411C23.4556 13.3976 24.6397 14.4507 24.8175 16.0059C24.9188 16.8923 25 18.1715 25 20C25 21.8285 24.9188 23.1077 24.8175 23.9941C24.6398 25.5484 23.4585 26.602 21.9732 26.7588C20.7919 26.8834 18.9108 27 16 27C13.0892 27 11.2081 26.8834 10.0268 26.7588C8.54151 26.602 7.36021 25.5484 7.18253 23.9941C7.0812 23.1077 7 21.8285 7 20C7 18.1715 7.0812 16.8923 7.18253 16.0059C7.36031 14.4507 8.54436 13.3976 10.0288 13.2411C10.5331 13.1879 11.1639 13.1363 11.9468 13.0945C12.4983 13.0651 12.9692 13.4884 12.9986 14.0399Z" fill="#8F95B2"/>
<path fill-rule="evenodd" clip-rule="evenodd" d="M13.2071 10.2071C12.8166 10.5976 12.1834 10.5976 11.7929 10.2071C11.4024 9.81658 11.4024 9.18342 11.7929 8.79289L15.2929 5.29289C15.6834 4.90237 16.3166 4.90237 16.7071 5.29289L20.2071 8.79289C20.5976 9.18342 20.5976 9.81658 20.2071 10.2071C19.8166 10.5976 19.1834 10.5976 18.7929 10.2071L17 8.41421V18C17 18.5523 16.5523 19 16 19C15.4477 19 15 18.5523 15 18V8.41421L13.2071 10.2071Z" fill="#8F95B2"/>
</svg>
