<svg width="24" height="24" viewBox="0 0 24 24" fill="none" xmlns="http://www.w3.org/2000/svg">
<path d="M15.3897 6.03409L16.3732 6.89681L17.8358 6.99306C17.9019 6.99797 17.9819 7.04256 17.9944 7.12322L19.978 18.9686L14.6167 19.9925L15.3897 6.03406L15.3897 6.03409ZM14.1153 20L4 18.3268L5.38025 8.92716C5.44697 8.50434 5.46304 8.49019 5.97129 8.34947L7.61136 7.90041C7.96247 6.58609 9.08197 4 11.4253 4C11.7314 4 12.0859 4.14509 12.3719 4.47909C13.4443 4.435 14.0346 5.23309 14.3587 6.05612L14.8956 5.90981L14.1153 20ZM12.0573 5.13669C11.4858 5.35319 10.8321 5.927 10.4834 7.11512L12.2944 6.62003C12.301 5.92184 12.2013 5.4555 12.0573 5.13669ZM8.33408 7.70272L9.76555 7.31134C10.1055 5.74222 10.9105 4.95641 11.6615 4.64444C11.564 4.58516 11.4621 4.55488 11.361 4.55488C9.67779 4.55488 8.73224 6.50588 8.33408 7.70272ZM12.4569 9.73203C12.4569 9.73203 11.9889 9.49247 11.0416 9.49247C8.58307 9.49247 7.36513 10.9422 7.36513 12.4402C7.36513 14.22 9.3767 14.2683 9.3767 15.3516C9.3767 15.6134 9.16693 15.9718 8.65139 15.9718C7.86229 15.9718 6.92722 15.263 6.92722 15.263L6.45097 16.6523C6.45097 16.6523 7.36063 17.6297 9.13953 17.6297C10.622 17.6297 11.7214 16.6443 11.7214 15.1141C11.7214 13.1691 9.26944 12.8509 9.26944 12.0205C9.26944 11.8683 9.32431 11.2643 10.4144 11.2643C11.158 11.2643 11.7646 11.5502 11.7646 11.5502L12.4569 9.73203ZM12.9091 6.45209L13.7859 6.21256C13.5638 5.61334 13.2185 5.09275 12.7002 5.03528C12.8595 5.44053 12.916 5.92263 12.9091 6.45209Z" fill="#9BBA58"/>
</svg>
