<svg width="25" height="24" viewBox="0 0 25 24" fill="none" xmlns="http://www.w3.org/2000/svg">
<rect width="24" height="24" transform="translate(0.668945)" fill="white"/>
<path fill-rule="evenodd" clip-rule="evenodd" d="M11.6981 15.0007C12.25 14.9799 12.7143 15.4104 12.7351 15.9623C12.7821 17.2065 12.8481 18.1145 12.9129 18.7656C12.9768 19.4068 13.3639 19.7926 13.9035 19.8586C14.5397 19.9363 15.4373 20 16.6689 20C17.9006 20 18.7982 19.9363 19.4344 19.8586C19.9737 19.7926 20.361 19.4067 20.4249 18.7653C20.5453 17.5568 20.6689 15.4688 20.6689 12C20.6689 8.53118 20.5453 6.44321 20.4249 5.23468C20.361 4.59333 19.9737 4.20736 19.4344 4.14144C18.7982 4.06366 17.9006 4 16.6689 4C15.4373 4 14.5397 4.06365 13.9035 4.14143C13.3639 4.20739 12.9768 4.59318 12.9129 5.23437C12.8481 5.88545 12.7821 6.79354 12.7351 8.03772C12.7143 8.58961 12.25 9.02012 11.6981 8.99929C11.1462 8.97845 10.7157 8.51417 10.7366 7.96228C10.7848 6.68524 10.8531 5.73543 10.9228 5.03611C11.0692 3.56595 12.0943 2.3477 13.6608 2.15621C14.39 2.06707 15.3697 2 16.6689 2C17.9682 2 18.9479 2.06707 19.6771 2.15622C21.2438 2.34774 22.2686 3.56655 22.415 5.03643C22.544 6.33068 22.6689 8.48847 22.6689 12C22.6689 15.5115 22.544 17.6693 22.415 18.9636C22.2686 20.4334 21.2438 21.6523 19.6771 21.8438C18.9479 21.9329 17.9682 22 16.6689 22C15.3697 22 14.39 21.9329 13.6608 21.8438C12.0943 21.6523 11.0692 20.4341 10.9228 18.9639C10.8531 18.2646 10.7848 17.3148 10.7366 16.0377C10.7157 15.4858 11.1462 15.0215 11.6981 15.0007Z" fill="#8F95B2"/>
<path fill-rule="evenodd" clip-rule="evenodd" d="M7.87605 14.7929C8.26658 15.1834 8.26658 15.8166 7.87605 16.2071C7.48553 16.5976 6.85236 16.5976 6.46184 16.2071L2.96184 12.7071C2.57131 12.3166 2.57131 11.6834 2.96184 11.2929L6.46184 7.79289C6.85236 7.40237 7.48553 7.40237 7.87605 7.79289C8.26658 8.18342 8.26658 8.81658 7.87605 9.20711L6.08316 11H15.6689C16.2212 11 16.6689 11.4477 16.6689 12C16.6689 12.5523 16.2212 13 15.6689 13L6.08316 13L7.87605 14.7929Z" fill="#8F95B2"/>
</svg>
