<svg width="24" height="24" viewBox="0 0 24 24" fill="none" xmlns="http://www.w3.org/2000/svg">
<path fill-rule="evenodd" clip-rule="evenodd" d="M7.34711 12.3841L12.4026 7.26674C12.7461 6.91905 13.2031 6.72787 13.6902 6.72787C14.177 6.72787 14.634 6.91887 14.9771 7.26656L15.371 7.66526L16.159 6.86767L15.7651 6.46897C15.2117 5.90887 14.4749 5.6004 13.6899 5.6004C12.9052 5.60058 12.1682 5.90905 11.6148 6.46934L6.55936 11.5865L7.34711 12.3841Z" fill="#353945"/>
<path fill-rule="evenodd" clip-rule="evenodd" d="M14.1115 8.96706L13.3198 8.17066L8.24061 13.2805C7.52734 13.998 6.36678 13.9982 5.65369 13.2808C4.94042 12.5633 4.94042 11.3956 5.65369 10.6781L10.0366 6.26913L9.24492 5.47291L4.86221 9.88185C3.71247 11.0385 3.71247 12.9206 4.86221 14.077C5.41816 14.6363 6.15846 14.9445 6.94688 14.9445C7.73548 14.9445 8.47614 14.6361 9.03209 14.0769L14.1115 8.96706Z" fill="#353945"/>
<path fill-rule="evenodd" clip-rule="evenodd" d="M19.1377 9.92278C18.5819 9.3635 17.8416 9.05548 17.0528 9.05548C16.2642 9.05566 15.5236 9.36368 14.9676 9.92314L9.88855 15.0329L10.6799 15.8293L15.7593 10.7194C16.4727 10.0018 17.6331 10.002 18.3462 10.7192C18.6911 11.0662 18.8811 11.5281 18.8811 12.0203C18.8811 12.5127 18.6911 12.9748 18.3462 13.3218L13.9635 17.7308L14.7551 18.5271L19.1377 14.1182C20.2876 12.9616 20.2876 11.0794 19.1377 9.92278Z" fill="#353945"/>
<path fill-rule="evenodd" clip-rule="evenodd" d="M16.6509 11.6181L11.5956 16.7355C10.8855 17.4539 9.73059 17.4543 9.02087 16.7357L8.627 16.337L7.83908 17.1346L8.23295 17.5333C8.78627 18.0934 9.52307 18.4018 10.3083 18.4018C11.093 18.4017 11.8298 18.0932 12.3833 17.5329L17.4387 12.4157L16.6509 11.6181Z" fill="#353945"/>
</svg>
