<svg width="24" height="25" viewBox="0 0 24 25" fill="none" xmlns="http://www.w3.org/2000/svg">
<path d="M12 3.8001C10.22 3.8001 8.47991 4.32794 6.99987 5.31688C5.51983 6.30581 4.36628 7.71142 3.68509 9.35595C3.0039 11.0005 2.82567 12.8101 3.17294 14.5559C3.5202 16.3017 4.37737 17.9054 5.63604 19.1641C6.89471 20.4227 8.49836 21.2799 10.2442 21.6272C11.99 21.9744 13.7996 21.7962 15.4442 21.115C17.0887 20.4338 18.4943 19.2803 19.4832 17.8002C20.4722 16.3202 21 14.5801 21 12.8001C20.9975 10.4139 20.0485 8.1262 18.3612 6.43892C16.6739 4.75164 14.3862 3.80262 12 3.8001ZM12 20.4155C10.4938 20.4155 9.02146 19.9688 7.76912 19.1321C6.51678 18.2953 5.5407 17.1059 4.96431 15.7144C4.38792 14.3229 4.23711 12.7917 4.53095 11.3144C4.82479 9.83717 5.55008 8.48024 6.61511 7.41521C7.68014 6.35018 9.03708 5.62489 10.5143 5.33104C11.9916 5.0372 13.5228 5.18801 14.9143 5.7644C16.3058 6.34079 17.4952 7.31688 18.332 8.56922C19.1688 9.82156 19.6154 11.2939 19.6154 12.8001C19.6131 14.8191 18.81 16.7548 17.3824 18.1825C15.9547 19.6101 14.019 20.4132 12 20.4155ZM11.3077 13.4924V8.64626C11.3077 8.46264 11.3806 8.28655 11.5105 8.15672C11.6403 8.02689 11.8164 7.95395 12 7.95395C12.1836 7.95395 12.3597 8.02689 12.4895 8.15672C12.6194 8.28655 12.6923 8.46264 12.6923 8.64626V13.4924C12.6923 13.676 12.6194 13.8521 12.4895 13.9819C12.3597 14.1118 12.1836 14.1847 12 14.1847C11.8164 14.1847 11.6403 14.1118 11.5105 13.9819C11.3806 13.8521 11.3077 13.676 11.3077 13.4924ZM13.0385 16.6078C13.0385 16.8132 12.9776 17.014 12.8635 17.1847C12.7493 17.3555 12.5872 17.4886 12.3974 17.5672C12.2076 17.6458 11.9988 17.6664 11.7974 17.6263C11.596 17.5862 11.4109 17.4873 11.2657 17.3421C11.1205 17.1969 11.0216 17.0118 10.9815 16.8104C10.9414 16.6089 10.962 16.4001 11.0406 16.2104C11.1192 16.0206 11.2523 15.8585 11.4231 15.7443C11.5938 15.6302 11.7946 15.5693 12 15.5693C12.2754 15.5693 12.5396 15.6787 12.7343 15.8735C12.9291 16.0682 13.0385 16.3324 13.0385 16.6078Z" fill="#FF7162"/>
</svg>
