<svg width="16" height="16" viewBox="0 0 16 16" fill="none" xmlns="http://www.w3.org/2000/svg">
<path d="M11.868 5.70681C11.868 5.70681 10.5707 9.77548 10.4647 10.1115C10.138 7.56152 9.8082 5.01196 9.47533 2.46281C7.26467 2.46281 6.08267 4.03614 5.458 5.69681L3.748 10.1215C3.738 9.80414 3.508 5.74481 3.508 5.74481C3.372 3.71014 1.508 2.47147 0 2.47147L1.826 13.5381C4.142 13.5281 5.39067 11.9641 6.04467 10.3035C6.04467 10.3035 7.438 6.70481 7.49533 6.54148C7.50533 6.69481 8.49533 13.5375 8.49533 13.5375C10.8207 13.5375 12.07 12.0695 12.742 10.4668L16 2.47214C13.7033 2.47214 12.4927 4.03614 11.868 5.70614V5.70681Z" fill="#424FEA"/>
</svg>
