<svg width="24" height="24" viewBox="0 0 24 24" fill="none" xmlns="http://www.w3.org/2000/svg">
<path d="M13.0819 9.1929C12.7821 9.3518 12.6742 9.61413 12.6742 10.3397C12.6742 10.3397 12.8256 10.1942 13.0482 10.1126C13.1854 10.0628 13.3147 9.99337 13.4319 9.90644C13.6853 9.72131 13.7205 9.48521 13.7205 9.08497C13.7205 9.08497 13.306 9.07298 13.0819 9.1929ZM11.3213 9.36454C11.0815 9.5789 11.008 9.91843 11.008 9.91843L10.2 13.0222L9.53373 10.4776C9.46852 10.2115 9.34935 9.87196 9.16272 9.64785C8.93037 9.36454 8.45518 9.3473 8.40196 9.3473C8.351 9.3473 7.87056 9.36454 7.63296 9.65235C7.44858 9.87945 7.32866 10.2152 7.26345 10.4828L6.59714 13.0274L5.79816 9.91918C5.79816 9.91918 5.7292 9.57515 5.48486 9.36529C5.08837 9.01676 4.5 9.09022 4.5 9.09022L6.035 14.9094C6.035 14.9094 6.54242 14.9484 6.79576 14.815C7.12629 14.6471 7.28969 14.5144 7.49206 13.7185C7.67269 13.0139 8.17561 10.9423 8.22208 10.7916C8.24382 10.7182 8.27455 10.5428 8.40271 10.5428C8.53688 10.5428 8.56311 10.7144 8.58335 10.7916C8.63131 10.9378 9.12974 13.0139 9.31487 13.7185C9.51574 14.5092 9.67539 14.6381 10.0112 14.815C10.2645 14.9484 10.7719 14.9094 10.7719 14.9094L12.3069 9.09396C12.3054 9.09396 11.7156 9.01976 11.3213 9.36454ZM13.7205 10.0391C13.7205 10.0391 13.6238 10.1853 13.4057 10.3142C13.2648 10.3921 13.1306 10.4476 12.9845 10.5173C12.7424 10.6327 12.6742 10.7661 12.6742 10.9633V14.9102C12.6742 14.9102 13.0654 14.9574 13.3143 14.8322C13.6411 14.6659 13.7138 14.5062 13.7198 13.7799L13.7205 10.0391ZM17.552 12.0118L19.5 9.10745C19.5 9.10745 18.6785 8.9658 18.27 9.33905C18.0077 9.57515 17.7169 10.0024 17.7169 10.0024L17.0034 11.0412C16.9636 11.0929 16.9254 11.1536 16.8535 11.1536C16.7793 11.1536 16.7328 11.0974 16.7021 11.0412L15.981 10.0054C15.981 10.0054 15.6925 9.57965 15.4264 9.3428C15.0217 8.96879 14.1964 9.11045 14.1964 9.11045L16.1474 12.0073L14.1964 14.899C14.1964 14.899 15.0554 15.0106 15.4616 14.6366C15.724 14.4005 15.9773 14.0093 15.9773 14.0093L16.6893 12.9727C16.7291 12.9217 16.7673 12.8625 16.8392 12.8625C16.9142 12.8625 16.9599 12.9187 16.9906 12.9727L17.7042 14.0093C17.7042 14.0093 17.9702 14.3915 18.2288 14.6366C18.6321 15.0106 19.4783 14.899 19.4783 14.899L17.552 12.0118Z" fill="#353945"/>
</svg>
