<svg width="16" height="16" viewBox="0 0 16 16" fill="none" xmlns="http://www.w3.org/2000/svg">
<rect width="16" height="16" rx="8" fill="#353945"/>
<path d="M8 3C5.245 3 3 5.245 3 8C3 10.755 5.245 13 8 13C10.755 13 13 10.755 13 8C13 5.245 10.755 3 8 3ZM3.505 8C3.505 7.35 3.645 6.73 3.895 6.17L6.04 12.045C4.54 11.315 3.505 9.78 3.505 8ZM8 12.495C7.56 12.495 7.135 12.43 6.73 12.31L8.08 8.39L9.46 12.175C9.47 12.195 9.48 12.22 9.49 12.235C9.025 12.405 8.525 12.495 8 12.495ZM8.62 5.89C8.89 5.875 9.135 5.845 9.135 5.845C9.375 5.815 9.35 5.46 9.105 5.475C9.105 5.475 8.375 5.53 7.905 5.53C7.465 5.53 6.72 5.475 6.72 5.475C6.48 5.465 6.45 5.835 6.695 5.85C6.695 5.85 6.925 5.88 7.165 5.895L7.865 7.815L6.88 10.765L5.245 5.89C5.515 5.88 5.76 5.85 5.76 5.85C6 5.82 5.975 5.465 5.73 5.48C5.73 5.48 5 5.535 4.53 5.535C4.445 5.535 4.345 5.535 4.24 5.53C5.05 4.31 6.43 3.505 8 3.505C9.17 3.505 10.235 3.95 11.035 4.685C11.015 4.685 10.995 4.68 10.975 4.68C10.535 4.68 10.22 5.065 10.22 5.48C10.22 5.85 10.435 6.165 10.66 6.535C10.83 6.835 11.03 7.22 11.03 7.775C11.03 8.16 10.88 8.605 10.69 9.23L10.24 10.73L8.62 5.89ZM11.945 5.845C12.5066 6.87282 12.6448 8.07928 12.33 9.20745C12.0153 10.3356 11.2726 11.2963 10.26 11.885L11.635 7.915C11.89 7.275 11.975 6.76 11.975 6.305C11.975 6.14 11.965 5.985 11.945 5.845Z" fill="white"/>
</svg>
