<svg width="33" height="27" viewBox="0 0 33 27" fill="none" xmlns="http://www.w3.org/2000/svg">
<path fill-rule="evenodd" clip-rule="evenodd" d="M7.41108 1.28157C4.21288 1.68134 1.74458 4.11627 1.29516 7.30787C1.02335 9.23822 0.799805 11.5191 0.799805 13.8C0.799805 16.0809 1.02335 18.3618 1.29516 20.2921C1.74458 23.4837 4.21289 25.9187 7.41108 26.3184C9.85369 26.6238 13.0596 26.8909 16.7998 26.8909C20.54 26.8909 23.7459 26.6238 26.1885 26.3184C29.3867 25.9187 31.855 23.4837 32.3044 20.2921C32.5763 18.3618 32.7998 16.0809 32.7998 13.8C32.7998 11.5191 32.5763 9.23822 32.3044 7.30787C31.855 4.11627 29.3867 1.68134 26.1885 1.28157C23.7459 0.976246 20.54 0.709091 16.7998 0.709091C13.0596 0.709091 9.85369 0.976246 7.41108 1.28157ZM22.099 12.5665L14.6616 7.91818C13.6928 7.31268 12.4362 8.00918 12.4362 9.15163V18.4484C12.4362 19.5908 13.6928 20.2873 14.6616 19.6818L22.099 15.0335C23.0105 14.4638 23.0105 13.1362 22.099 12.5665Z" fill="white"/>
</svg>
